<svg width="731" height="151" viewBox="0 0 731 151" fill="none" xmlns="http://www.w3.org/2000/svg">
<mask id="path-1-outside-1_179_7" maskUnits="userSpaceOnUse" x="0" y="0" width="731" height="151" fill="black">
<rect fill="white" width="731" height="151"/>
<path d="M29.8 149.8C27.1333 149.8 24.1333 149.533 20.8 149C17.6 148.467 14.5333 147.8 11.6 147C8.8 146.2 6.6 145.333 5 144.4C4.06667 143.867 3.33333 143.333 2.8 142.8C2.4 142.133 2.2 141.067 2.2 139.6L1.2 108.2C1.2 105.533 2.06667 104.2 3.8 104.2C5.26667 104.2 6.26667 105.4 6.8 107.8L8.6 115.4C13.1333 134.467 21.6 144 34 144C40.6667 144 45.9333 141.8 49.8 137.4C53.8 132.867 55.8 126.533 55.8 118.4C55.8 110.533 53.7333 103.2 49.6 96.4C45.6 89.6 39.1333 82.8667 30.2 76.2C20.3333 69.1333 13.1333 62.3333 8.6 55.8C4.06667 49.1333 1.8 42.0667 1.8 34.6C1.8 24.7333 5.2 16.8667 12 11C18.9333 4.99999 27.7333 2 38.4 2C42.4 2 46.2667 2.46666 50 3.39999C53.7333 4.33333 56.8 5.66666 59.2 7.4C60 7.93332 60.6 8.53332 61 9.2C61.5333 9.86666 61.8 10.7333 61.8 11.8L62.4 42C62.4 44.2667 61.5333 45.4 59.8 45.4C58.6 45.4 57.7333 44.4667 57.2 42.6L55.8 37.6C52.8667 27.3333 49.8 19.8667 46.6 15.2C43.5333 10.4 39.0667 7.99999 33.2 7.99999C27.4667 7.99999 22.8667 9.86666 19.4 13.6C16.0667 17.3333 14.4 22.6 14.4 29.4C14.4 35.1333 16.2667 40.6 20 45.8C23.7333 51 30.2667 57.3333 39.6 64.8C49.6 72.9333 56.8667 80.8 61.4 88.4C66.0667 95.8667 68.4 103.867 68.4 112.4C68.4 119.867 66.7333 126.4 63.4 132C60.0667 137.6 55.4667 142 49.6 145.2C43.8667 148.267 37.2667 149.8 29.8 149.8ZM80.0734 148C78.0734 148 77.0734 147.267 77.0734 145.8C77.0734 144.6 77.9401 143.8 79.6734 143.4L84.2734 142.6C87.0734 142.067 88.8734 141.333 89.6734 140.4C90.6068 139.467 91.0734 137.6 91.0734 134.8V17.2C91.0734 14.4 90.6068 12.5333 89.6734 11.6C88.8734 10.6667 87.0734 9.93333 84.2734 9.4L79.6734 8.59999C77.9401 8.19999 77.0734 7.39999 77.0734 6.19999C77.0734 4.73333 78.0734 3.99999 80.0734 3.99999H116.273C118.273 3.99999 119.273 4.73333 119.273 6.19999C119.273 7.39999 118.407 8.19999 116.673 8.59999L112.073 9.4C109.273 9.93333 107.407 10.6667 106.473 11.6C105.673 12.5333 105.273 14.4 105.273 17.2V134.8C105.273 137.6 105.673 139.467 106.473 140.4C107.407 141.333 109.273 142.067 112.073 142.6L116.673 143.4C118.407 143.8 119.273 144.6 119.273 145.8C119.273 147.267 118.273 148 116.273 148H80.0734ZM208.878 149.8C206.745 149.8 204.945 148.2 203.478 145L149.278 27.4C148.878 26.4667 148.345 26.0667 147.678 26.2C147.145 26.3333 146.878 26.9333 146.878 28V130.8C146.878 134.533 147.478 137.4 148.678 139.4C150.011 141.267 152.345 142.467 155.678 143L158.278 143.4C160.011 143.533 160.878 144.333 160.878 145.8C160.878 147.267 159.878 148 157.878 148H129.278C127.278 148 126.278 147.267 126.278 145.8C126.278 144.333 127.145 143.533 128.878 143.4L131.478 143C134.945 142.467 137.345 141.267 138.678 139.4C140.011 137.4 140.678 134.533 140.678 130.8V17.2C140.678 14.4 140.211 12.5333 139.278 11.6C138.478 10.6667 136.545 9.93333 133.478 9.4L128.878 8.59999C127.145 8.19999 126.278 7.39999 126.278 6.19999C126.278 4.73333 127.278 3.99999 129.278 3.99999H150.678C154.011 3.99999 156.345 5.46666 157.678 8.4L204.878 112.2C205.278 113 205.745 113.333 206.278 113.2C206.945 113.067 207.278 112.6 207.278 111.8V21.2C207.278 16.9333 206.545 14 205.078 12.4C203.611 10.6667 201.745 9.59999 199.478 9.2L195.878 8.59999C194.145 8.19999 193.278 7.39999 193.278 6.19999C193.278 4.73333 194.278 3.99999 196.278 3.99999H224.878C226.878 3.99999 227.878 4.73333 227.878 6.19999C227.878 7.66666 227.011 8.46666 225.278 8.59999L222.678 8.99999C219.211 9.53332 216.811 10.6667 215.478 12.4C214.145 14 213.478 16.9333 213.478 21.2V143.4C213.478 145.8 213.011 147.467 212.078 148.4C211.278 149.333 210.211 149.8 208.878 149.8ZM285.942 149.8C276.076 149.8 267.409 146.733 259.942 140.6C252.609 134.467 246.876 125.867 242.742 114.8C238.742 103.6 236.742 90.4 236.742 75.2C236.742 60.5333 238.942 47.7333 243.342 36.8C247.876 25.7333 253.876 17.2 261.342 11.2C268.942 5.06666 277.342 2 286.542 2C292.009 2 296.809 2.53333 300.942 3.59999C305.076 4.53332 308.742 5.79999 311.942 7.4C313.542 8.33333 314.342 9.73333 314.342 11.6L314.942 42C314.942 44.2667 314.142 45.4 312.542 45.4C311.076 45.4 310.142 44.5333 309.742 42.8L307.742 35.4C304.942 25 301.676 17.8 297.942 13.8C294.342 9.8 290.009 7.79999 284.942 7.79999C275.609 7.79999 267.809 13.6 261.542 25.2C255.409 36.6667 252.342 53.3333 252.342 75.2C252.342 90.1333 253.876 102.733 256.942 113C260.142 123.267 264.209 131 269.142 136.2C274.209 141.4 279.542 144 285.142 144C291.142 144 295.942 142.133 299.542 138.4C303.276 134.667 306.409 127.467 308.942 116.8L311.342 107C311.742 105 312.809 104.133 314.542 104.4C316.009 104.667 316.742 105.8 316.742 107.8L315.942 140.2C315.942 142.067 315.076 143.467 313.342 144.4C310.142 146 306.342 147.267 301.942 148.2C297.676 149.267 292.342 149.8 285.942 149.8ZM331.636 148C329.636 148 328.636 147.267 328.636 145.8C328.636 144.6 329.503 143.8 331.236 143.4L335.836 142.6C338.636 142.067 340.436 141.333 341.236 140.4C342.169 139.467 342.636 137.6 342.636 134.8V17.2C342.636 14.4 342.169 12.5333 341.236 11.6C340.436 10.6667 338.636 9.93333 335.836 9.4L331.236 8.59999C329.503 8.19999 328.636 7.39999 328.636 6.19999C328.636 4.73333 329.636 3.99999 331.636 3.99999H398.836C401.903 3.99999 403.569 5.53333 403.836 8.59999L405.436 41.8C405.703 44.0667 404.836 45.2 402.836 45.2C401.236 45.2 400.303 44.3333 400.036 42.6L398.836 35.2C397.369 26.1333 394.369 19.5333 389.836 15.4C385.303 11.1333 379.036 8.99999 371.036 8.99999C365.703 8.99999 361.969 9.79999 359.836 11.4C357.836 12.8667 356.836 15.5333 356.836 19.4V67.6C356.836 69.4667 357.769 70.4 359.636 70.4H369.636C375.503 70.4 379.103 67.2667 380.436 61L382.436 51C382.969 49 384.103 48.1333 385.836 48.4C387.303 48.6667 388.036 49.8 388.036 51.8V96.8C388.036 98.8 387.303 99.9333 385.836 100.2C384.103 100.467 382.969 99.6 382.436 97.6L380.436 87.8C379.503 83.1333 378.169 80.0667 376.436 78.6C374.836 77.1333 372.503 76.4 369.436 76.4H359.636C357.769 76.4 356.836 77.3333 356.836 79.2V129.4C356.836 134.2 358.036 137.667 360.436 139.8C362.969 141.933 367.503 143 374.036 143C380.703 143 386.369 141.333 391.036 138C395.836 134.533 399.169 128.133 401.036 118.8L403.436 107C403.836 105.267 404.836 104.4 406.436 104.4C408.303 104.4 409.103 105.533 408.836 107.8L406.836 143.4C406.569 146.467 404.903 148 401.836 148H331.636ZM453.445 148C451.445 148 450.445 147.267 450.445 145.8C450.445 144.333 451.312 143.533 453.045 143.4L460.845 142.6C463.645 142.333 465.512 141.667 466.445 140.6C467.512 139.533 468.045 137.6 468.045 134.8V16C468.045 13.7333 467.379 12.2667 466.045 11.6C464.845 10.8 463.245 10.5333 461.245 10.8L454.045 11.6C451.645 11.7333 450.445 10.8667 450.445 8.99999C450.445 7.53333 451.512 6.59999 453.645 6.19999C460.712 4.99999 465.912 3.86666 469.245 2.8C472.579 1.6 475.045 0.999997 476.645 0.999997C479.445 0.999997 480.845 2.46666 480.845 5.39999V134.8C480.845 137.6 481.312 139.533 482.245 140.6C483.312 141.667 485.245 142.333 488.045 142.6L494.645 143.4C496.379 143.533 497.245 144.333 497.245 145.8C497.245 147.267 496.245 148 494.245 148H453.445ZM517.25 149.6C515.917 149.867 514.917 149.733 514.25 149.2C513.717 148.667 513.45 148 513.45 147.2C513.45 146 514.183 145.067 515.65 144.4C525.917 140.533 534.383 134.067 541.05 125C547.717 115.8 552.317 103.333 554.85 87.6C555.117 86.5333 554.983 85.8667 554.45 85.6C553.917 85.3333 553.25 85.5333 552.45 86.2C548.317 89.4 543.25 91 537.25 91C530.983 91 525.383 89.0667 520.45 85.2C515.517 81.3333 511.583 76.1333 508.65 69.6C505.85 62.9333 504.45 55.6 504.45 47.6C504.45 39.4667 505.983 32 509.05 25.2C512.117 18.2667 516.183 12.6667 521.25 8.4C526.45 4.13333 532.183 2 538.45 2C545.25 2 551.183 4.26666 556.25 8.79999C561.317 13.3333 565.25 19.6667 568.05 27.8C570.983 35.8 572.45 45.2 572.45 56C572.45 72.5333 569.917 87.4 564.85 100.6C559.917 113.667 553.25 124.4 544.85 132.8C536.583 141.2 527.383 146.8 517.25 149.6ZM518.85 46.6C518.85 72.8667 525.05 86 537.45 86C544.25 86 549.383 82.4667 552.85 75.4C556.317 68.3333 558.05 58.3333 558.05 45.4C558.05 33 556.383 23.6 553.05 17.2C549.85 10.6667 544.917 7.4 538.25 7.4C525.317 7.4 518.85 20.4667 518.85 46.6ZM597.719 149.6C596.385 149.867 595.385 149.733 594.719 149.2C594.185 148.667 593.919 148 593.919 147.2C593.919 146 594.652 145.067 596.119 144.4C606.385 140.533 614.852 134.067 621.519 125C628.185 115.8 632.785 103.333 635.319 87.6C635.585 86.5333 635.452 85.8667 634.919 85.6C634.385 85.3333 633.719 85.5333 632.919 86.2C628.785 89.4 623.719 91 617.719 91C611.452 91 605.852 89.0667 600.919 85.2C595.985 81.3333 592.052 76.1333 589.119 69.6C586.319 62.9333 584.919 55.6 584.919 47.6C584.919 39.4667 586.452 32 589.519 25.2C592.585 18.2667 596.652 12.6667 601.719 8.4C606.919 4.13333 612.652 2 618.919 2C625.719 2 631.652 4.26666 636.719 8.79999C641.785 13.3333 645.719 19.6667 648.519 27.8C651.452 35.8 652.919 45.2 652.919 56C652.919 72.5333 650.385 87.4 645.319 100.6C640.385 113.667 633.719 124.4 625.319 132.8C617.052 141.2 607.852 146.8 597.719 149.6ZM599.319 46.6C599.319 72.8667 605.519 86 617.919 86C624.719 86 629.852 82.4667 633.319 75.4C636.785 68.3333 638.519 58.3333 638.519 45.4C638.519 33 636.852 23.6 633.519 17.2C630.319 10.6667 625.385 7.4 618.719 7.4C605.785 7.4 599.319 20.4667 599.319 46.6ZM676.863 148C674.729 148 673.996 147 674.663 145L719.263 19.2C719.929 17.0667 719.196 16 717.063 16H672.663C670.529 16 668.929 16.4 667.863 17.2C666.796 18 665.929 18.8667 665.263 19.8C664.596 20.6 663.729 21 662.663 21C661.596 21 660.929 20.6 660.663 19.8C660.529 18.8667 660.596 17.8667 660.863 16.8L663.863 6.4C664.263 4.8 665.263 3.99999 666.863 3.99999H726.263C728.129 3.99999 729.063 4.8 729.063 6.4C729.063 7.46666 728.529 9.66666 727.463 13L684.663 145.8C684.263 147.267 683.329 148 681.863 148H676.863Z"/>
</mask>
<path d="M29.8 149.8C27.1333 149.8 24.1333 149.533 20.8 149C17.6 148.467 14.5333 147.8 11.6 147C8.8 146.2 6.6 145.333 5 144.4C4.06667 143.867 3.33333 143.333 2.8 142.8C2.4 142.133 2.2 141.067 2.2 139.6L1.2 108.2C1.2 105.533 2.06667 104.2 3.8 104.2C5.26667 104.2 6.26667 105.4 6.8 107.8L8.6 115.4C13.1333 134.467 21.6 144 34 144C40.6667 144 45.9333 141.8 49.8 137.4C53.8 132.867 55.8 126.533 55.8 118.4C55.8 110.533 53.7333 103.2 49.6 96.4C45.6 89.6 39.1333 82.8667 30.2 76.2C20.3333 69.1333 13.1333 62.3333 8.6 55.8C4.06667 49.1333 1.8 42.0667 1.8 34.6C1.8 24.7333 5.2 16.8667 12 11C18.9333 4.99999 27.7333 2 38.4 2C42.4 2 46.2667 2.46666 50 3.39999C53.7333 4.33333 56.8 5.66666 59.2 7.4C60 7.93332 60.6 8.53332 61 9.2C61.5333 9.86666 61.8 10.7333 61.8 11.8L62.4 42C62.4 44.2667 61.5333 45.4 59.8 45.4C58.6 45.4 57.7333 44.4667 57.2 42.6L55.8 37.6C52.8667 27.3333 49.8 19.8667 46.6 15.2C43.5333 10.4 39.0667 7.99999 33.2 7.99999C27.4667 7.99999 22.8667 9.86666 19.4 13.6C16.0667 17.3333 14.4 22.6 14.4 29.4C14.4 35.1333 16.2667 40.6 20 45.8C23.7333 51 30.2667 57.3333 39.6 64.8C49.6 72.9333 56.8667 80.8 61.4 88.4C66.0667 95.8667 68.4 103.867 68.4 112.4C68.4 119.867 66.7333 126.4 63.4 132C60.0667 137.6 55.4667 142 49.6 145.2C43.8667 148.267 37.2667 149.8 29.8 149.8ZM80.0734 148C78.0734 148 77.0734 147.267 77.0734 145.8C77.0734 144.6 77.9401 143.8 79.6734 143.4L84.2734 142.6C87.0734 142.067 88.8734 141.333 89.6734 140.4C90.6068 139.467 91.0734 137.6 91.0734 134.8V17.2C91.0734 14.4 90.6068 12.5333 89.6734 11.6C88.8734 10.6667 87.0734 9.93333 84.2734 9.4L79.6734 8.59999C77.9401 8.19999 77.0734 7.39999 77.0734 6.19999C77.0734 4.73333 78.0734 3.99999 80.0734 3.99999H116.273C118.273 3.99999 119.273 4.73333 119.273 6.19999C119.273 7.39999 118.407 8.19999 116.673 8.59999L112.073 9.4C109.273 9.93333 107.407 10.6667 106.473 11.6C105.673 12.5333 105.273 14.4 105.273 17.2V134.8C105.273 137.6 105.673 139.467 106.473 140.4C107.407 141.333 109.273 142.067 112.073 142.6L116.673 143.4C118.407 143.8 119.273 144.6 119.273 145.8C119.273 147.267 118.273 148 116.273 148H80.0734ZM208.878 149.8C206.745 149.8 204.945 148.2 203.478 145L149.278 27.4C148.878 26.4667 148.345 26.0667 147.678 26.2C147.145 26.3333 146.878 26.9333 146.878 28V130.8C146.878 134.533 147.478 137.4 148.678 139.4C150.011 141.267 152.345 142.467 155.678 143L158.278 143.4C160.011 143.533 160.878 144.333 160.878 145.8C160.878 147.267 159.878 148 157.878 148H129.278C127.278 148 126.278 147.267 126.278 145.8C126.278 144.333 127.145 143.533 128.878 143.4L131.478 143C134.945 142.467 137.345 141.267 138.678 139.4C140.011 137.4 140.678 134.533 140.678 130.8V17.2C140.678 14.4 140.211 12.5333 139.278 11.6C138.478 10.6667 136.545 9.93333 133.478 9.4L128.878 8.59999C127.145 8.19999 126.278 7.39999 126.278 6.19999C126.278 4.73333 127.278 3.99999 129.278 3.99999H150.678C154.011 3.99999 156.345 5.46666 157.678 8.4L204.878 112.2C205.278 113 205.745 113.333 206.278 113.2C206.945 113.067 207.278 112.6 207.278 111.8V21.2C207.278 16.9333 206.545 14 205.078 12.4C203.611 10.6667 201.745 9.59999 199.478 9.2L195.878 8.59999C194.145 8.19999 193.278 7.39999 193.278 6.19999C193.278 4.73333 194.278 3.99999 196.278 3.99999H224.878C226.878 3.99999 227.878 4.73333 227.878 6.19999C227.878 7.66666 227.011 8.46666 225.278 8.59999L222.678 8.99999C219.211 9.53332 216.811 10.6667 215.478 12.4C214.145 14 213.478 16.9333 213.478 21.2V143.4C213.478 145.8 213.011 147.467 212.078 148.4C211.278 149.333 210.211 149.8 208.878 149.8ZM285.942 149.8C276.076 149.8 267.409 146.733 259.942 140.6C252.609 134.467 246.876 125.867 242.742 114.8C238.742 103.6 236.742 90.4 236.742 75.2C236.742 60.5333 238.942 47.7333 243.342 36.8C247.876 25.7333 253.876 17.2 261.342 11.2C268.942 5.06666 277.342 2 286.542 2C292.009 2 296.809 2.53333 300.942 3.59999C305.076 4.53332 308.742 5.79999 311.942 7.4C313.542 8.33333 314.342 9.73333 314.342 11.6L314.942 42C314.942 44.2667 314.142 45.4 312.542 45.4C311.076 45.4 310.142 44.5333 309.742 42.8L307.742 35.4C304.942 25 301.676 17.8 297.942 13.8C294.342 9.8 290.009 7.79999 284.942 7.79999C275.609 7.79999 267.809 13.6 261.542 25.2C255.409 36.6667 252.342 53.3333 252.342 75.2C252.342 90.1333 253.876 102.733 256.942 113C260.142 123.267 264.209 131 269.142 136.2C274.209 141.4 279.542 144 285.142 144C291.142 144 295.942 142.133 299.542 138.4C303.276 134.667 306.409 127.467 308.942 116.8L311.342 107C311.742 105 312.809 104.133 314.542 104.4C316.009 104.667 316.742 105.8 316.742 107.8L315.942 140.2C315.942 142.067 315.076 143.467 313.342 144.4C310.142 146 306.342 147.267 301.942 148.2C297.676 149.267 292.342 149.8 285.942 149.8ZM331.636 148C329.636 148 328.636 147.267 328.636 145.8C328.636 144.6 329.503 143.8 331.236 143.4L335.836 142.6C338.636 142.067 340.436 141.333 341.236 140.4C342.169 139.467 342.636 137.6 342.636 134.8V17.2C342.636 14.4 342.169 12.5333 341.236 11.6C340.436 10.6667 338.636 9.93333 335.836 9.4L331.236 8.59999C329.503 8.19999 328.636 7.39999 328.636 6.19999C328.636 4.73333 329.636 3.99999 331.636 3.99999H398.836C401.903 3.99999 403.569 5.53333 403.836 8.59999L405.436 41.8C405.703 44.0667 404.836 45.2 402.836 45.2C401.236 45.2 400.303 44.3333 400.036 42.6L398.836 35.2C397.369 26.1333 394.369 19.5333 389.836 15.4C385.303 11.1333 379.036 8.99999 371.036 8.99999C365.703 8.99999 361.969 9.79999 359.836 11.4C357.836 12.8667 356.836 15.5333 356.836 19.4V67.6C356.836 69.4667 357.769 70.4 359.636 70.4H369.636C375.503 70.4 379.103 67.2667 380.436 61L382.436 51C382.969 49 384.103 48.1333 385.836 48.4C387.303 48.6667 388.036 49.8 388.036 51.8V96.8C388.036 98.8 387.303 99.9333 385.836 100.2C384.103 100.467 382.969 99.6 382.436 97.6L380.436 87.8C379.503 83.1333 378.169 80.0667 376.436 78.6C374.836 77.1333 372.503 76.4 369.436 76.4H359.636C357.769 76.4 356.836 77.3333 356.836 79.2V129.4C356.836 134.2 358.036 137.667 360.436 139.8C362.969 141.933 367.503 143 374.036 143C380.703 143 386.369 141.333 391.036 138C395.836 134.533 399.169 128.133 401.036 118.8L403.436 107C403.836 105.267 404.836 104.4 406.436 104.4C408.303 104.4 409.103 105.533 408.836 107.8L406.836 143.4C406.569 146.467 404.903 148 401.836 148H331.636ZM453.445 148C451.445 148 450.445 147.267 450.445 145.8C450.445 144.333 451.312 143.533 453.045 143.4L460.845 142.6C463.645 142.333 465.512 141.667 466.445 140.6C467.512 139.533 468.045 137.6 468.045 134.8V16C468.045 13.7333 467.379 12.2667 466.045 11.6C464.845 10.8 463.245 10.5333 461.245 10.8L454.045 11.6C451.645 11.7333 450.445 10.8667 450.445 8.99999C450.445 7.53333 451.512 6.59999 453.645 6.19999C460.712 4.99999 465.912 3.86666 469.245 2.8C472.579 1.6 475.045 0.999997 476.645 0.999997C479.445 0.999997 480.845 2.46666 480.845 5.39999V134.8C480.845 137.6 481.312 139.533 482.245 140.6C483.312 141.667 485.245 142.333 488.045 142.6L494.645 143.4C496.379 143.533 497.245 144.333 497.245 145.8C497.245 147.267 496.245 148 494.245 148H453.445ZM517.25 149.6C515.917 149.867 514.917 149.733 514.25 149.2C513.717 148.667 513.45 148 513.45 147.2C513.45 146 514.183 145.067 515.65 144.4C525.917 140.533 534.383 134.067 541.05 125C547.717 115.8 552.317 103.333 554.85 87.6C555.117 86.5333 554.983 85.8667 554.45 85.6C553.917 85.3333 553.25 85.5333 552.45 86.2C548.317 89.4 543.25 91 537.25 91C530.983 91 525.383 89.0667 520.45 85.2C515.517 81.3333 511.583 76.1333 508.65 69.6C505.85 62.9333 504.45 55.6 504.45 47.6C504.45 39.4667 505.983 32 509.05 25.2C512.117 18.2667 516.183 12.6667 521.25 8.4C526.45 4.13333 532.183 2 538.45 2C545.25 2 551.183 4.26666 556.25 8.79999C561.317 13.3333 565.25 19.6667 568.05 27.8C570.983 35.8 572.45 45.2 572.45 56C572.45 72.5333 569.917 87.4 564.85 100.6C559.917 113.667 553.25 124.4 544.85 132.8C536.583 141.2 527.383 146.8 517.25 149.6ZM518.85 46.6C518.85 72.8667 525.05 86 537.45 86C544.25 86 549.383 82.4667 552.85 75.4C556.317 68.3333 558.05 58.3333 558.05 45.4C558.05 33 556.383 23.6 553.05 17.2C549.85 10.6667 544.917 7.4 538.25 7.4C525.317 7.4 518.85 20.4667 518.85 46.6ZM597.719 149.6C596.385 149.867 595.385 149.733 594.719 149.2C594.185 148.667 593.919 148 593.919 147.2C593.919 146 594.652 145.067 596.119 144.4C606.385 140.533 614.852 134.067 621.519 125C628.185 115.8 632.785 103.333 635.319 87.6C635.585 86.5333 635.452 85.8667 634.919 85.6C634.385 85.3333 633.719 85.5333 632.919 86.2C628.785 89.4 623.719 91 617.719 91C611.452 91 605.852 89.0667 600.919 85.2C595.985 81.3333 592.052 76.1333 589.119 69.6C586.319 62.9333 584.919 55.6 584.919 47.6C584.919 39.4667 586.452 32 589.519 25.2C592.585 18.2667 596.652 12.6667 601.719 8.4C606.919 4.13333 612.652 2 618.919 2C625.719 2 631.652 4.26666 636.719 8.79999C641.785 13.3333 645.719 19.6667 648.519 27.8C651.452 35.8 652.919 45.2 652.919 56C652.919 72.5333 650.385 87.4 645.319 100.6C640.385 113.667 633.719 124.4 625.319 132.8C617.052 141.2 607.852 146.8 597.719 149.6ZM599.319 46.6C599.319 72.8667 605.519 86 617.919 86C624.719 86 629.852 82.4667 633.319 75.4C636.785 68.3333 638.519 58.3333 638.519 45.4C638.519 33 636.852 23.6 633.519 17.2C630.319 10.6667 625.385 7.4 618.719 7.4C605.785 7.4 599.319 20.4667 599.319 46.6ZM676.863 148C674.729 148 673.996 147 674.663 145L719.263 19.2C719.929 17.0667 719.196 16 717.063 16H672.663C670.529 16 668.929 16.4 667.863 17.2C666.796 18 665.929 18.8667 665.263 19.8C664.596 20.6 663.729 21 662.663 21C661.596 21 660.929 20.6 660.663 19.8C660.529 18.8667 660.596 17.8667 660.863 16.8L663.863 6.4C664.263 4.8 665.263 3.99999 666.863 3.99999H726.263C728.129 3.99999 729.063 4.8 729.063 6.4C729.063 7.46666 728.529 9.66666 727.463 13L684.663 145.8C684.263 147.267 683.329 148 681.863 148H676.863Z" fill="#141414"/>
<path d="M20.8 149L20.6356 149.986L20.642 149.987L20.8 149ZM11.6 147L11.3253 147.962L11.3369 147.965L11.6 147ZM5 144.4L5.50389 143.536L5.49614 143.532L5 144.4ZM2.8 142.8L1.94251 143.314L2.00585 143.42L2.09289 143.507L2.8 142.8ZM2.2 139.6H3.2V139.584L3.19949 139.568L2.2 139.6ZM1.2 108.2H0.2V108.216L0.200507 108.232L1.2 108.2ZM6.8 107.8L5.82372 108.017L5.82692 108.03L6.8 107.8ZM8.6 115.4L7.62692 115.63L7.62712 115.631L8.6 115.4ZM49.8 137.4L49.0502 136.738L49.0488 136.74L49.8 137.4ZM49.6 96.4L48.7381 96.907L48.7417 96.9132L48.7455 96.9194L49.6 96.4ZM30.2 76.2L30.7981 75.3986L30.7902 75.3927L30.7823 75.387L30.2 76.2ZM8.6 55.8L7.77304 56.3623L7.77841 56.3701L8.6 55.8ZM12 11L12.6532 11.7571L12.6544 11.7562L12 11ZM50 3.39999L50.2425 2.42985H50.2425L50 3.39999ZM59.2 7.4L58.6145 8.21068L58.6297 8.22165L58.6453 8.23205L59.2 7.4ZM61 9.2L60.1425 9.71449L60.1771 9.77217L60.2191 9.8247L61 9.2ZM61.8 11.8H60.8V11.8099L60.8002 11.8199L61.8 11.8ZM62.4 42H63.4V41.9901L63.3998 41.9801L62.4 42ZM57.2 42.6L56.237 42.8696L56.2385 42.8747L57.2 42.6ZM55.8 37.6L56.763 37.3304L56.7615 37.3253L55.8 37.6ZM46.6 15.2L45.7573 15.7384L45.7661 15.7521L45.7753 15.7655L46.6 15.2ZM19.4 13.6L18.6672 12.9195L18.6606 12.9267L18.6541 12.934L19.4 13.6ZM20 45.8L20.8123 45.2168L20 45.8ZM39.6 64.8L40.231 64.0242L40.2247 64.0191L39.6 64.8ZM61.4 88.4L60.5412 88.9123L60.5465 88.9212L60.552 88.93L61.4 88.4ZM63.4 132L64.2593 132.511L63.4 132ZM49.6 145.2L50.0717 146.082L50.0789 146.078L49.6 145.2ZM29.8 148.8C27.198 148.8 24.2521 148.54 20.958 148.013L20.642 149.987C24.0145 150.527 27.0687 150.8 29.8 150.8V148.8ZM20.9644 148.014C17.7955 147.485 14.7619 146.826 11.8631 146.035L11.3369 147.965C14.3048 148.774 17.4045 149.448 20.6356 149.986L20.9644 148.014ZM11.8747 146.038C9.11481 145.25 7.00306 144.411 5.50387 143.536L4.49613 145.264C6.19694 146.256 8.4852 147.15 11.3253 147.962L11.8747 146.038ZM5.49614 143.532C4.61016 143.025 3.95722 142.543 3.50711 142.093L2.09289 143.507C2.70945 144.124 3.52318 144.708 4.50386 145.268L5.49614 143.532ZM3.65749 142.286C3.40183 141.859 3.2 141.021 3.2 139.6H1.2C1.2 141.113 1.39817 142.407 1.94251 143.314L3.65749 142.286ZM3.19949 139.568L2.19949 108.168L0.200507 108.232L1.20051 139.632L3.19949 139.568ZM2.2 108.2C2.2 106.943 2.41005 106.173 2.68844 105.745C2.91842 105.391 3.23561 105.2 3.8 105.2V103.2C2.63105 103.2 1.64825 103.675 1.01156 104.655C0.423286 105.56 0.2 106.79 0.2 108.2H2.2ZM3.8 105.2C4.21518 105.2 4.55765 105.351 4.88178 105.74C5.23754 106.167 5.57386 106.892 5.82381 108.017L7.77619 107.583C7.4928 106.308 7.06246 105.233 6.41822 104.46C5.74235 103.649 4.85149 103.2 3.8 103.2V105.2ZM5.82692 108.03L7.62692 115.63L9.57308 115.17L7.77308 107.57L5.82692 108.03ZM7.62712 115.631C9.91328 125.247 13.2159 132.575 17.6023 137.514C22.0193 142.488 27.5051 145 34 145V143C28.0949 143 23.1474 140.746 19.0977 136.186C15.0174 131.592 11.8201 124.62 9.57288 115.169L7.62712 115.631ZM34 145C40.9101 145 46.4673 142.707 50.5512 138.06L49.0488 136.74C45.3993 140.893 40.4232 143 34 143V145ZM50.5498 138.062C54.7596 133.291 56.8 126.692 56.8 118.4H54.8C54.8 126.375 52.8404 132.443 49.0502 136.738L50.5498 138.062ZM56.8 118.4C56.8 110.348 54.6819 102.835 50.4545 95.8806L48.7455 96.9194C52.7848 103.565 54.8 110.719 54.8 118.4H56.8ZM50.4619 95.893C46.3727 88.9413 39.7973 82.1144 30.7981 75.3986L29.6019 77.0014C38.4694 83.6189 44.8273 90.2587 48.7381 96.907L50.4619 95.893ZM30.7823 75.387C20.965 68.3557 13.8648 61.6333 9.42159 55.2299L7.77841 56.3701C12.4019 63.0334 19.7017 69.911 29.6177 77.013L30.7823 75.387ZM9.42693 55.2377C4.99693 48.723 2.8 41.85 2.8 34.6H0.800001C0.800001 42.2834 3.1364 49.5437 7.77307 56.3623L9.42693 55.2377ZM2.8 34.6C2.8 24.9918 6.09675 17.4137 12.6532 11.7571L11.3468 10.2428C4.30326 16.3196 0.800001 24.4748 0.800001 34.6H2.8ZM12.6544 11.7562C19.3769 5.93863 27.9321 3 38.4 3V0.999996C27.5345 0.999996 18.4898 4.06136 11.3456 10.2438L12.6544 11.7562ZM38.4 3C42.3215 3 46.1065 3.4574 49.7575 4.37013L50.2425 2.42985C46.4268 1.47592 42.4785 0.999996 38.4 0.999996V3ZM49.7575 4.37013C53.4026 5.28142 56.3435 6.57048 58.6145 8.21068L59.7855 6.58932C57.2565 4.76284 54.0641 3.38523 50.2425 2.42985L49.7575 4.37013ZM58.6453 8.23205C59.3506 8.70223 59.8345 9.20118 60.1425 9.71449L61.8575 8.68551C61.3655 7.86547 60.6494 7.16442 59.7547 6.56794L58.6453 8.23205ZM60.2191 9.8247C60.5782 10.2735 60.8 10.9024 60.8 11.8H62.8C62.8 10.5642 62.4885 9.45978 61.7809 8.5753L60.2191 9.8247ZM60.8002 11.8199L61.4002 42.0199L63.3998 41.9801L62.7998 11.7801L60.8002 11.8199ZM61.4 42C61.4 43.0341 61.1974 43.6264 60.9556 43.9426C60.7527 44.208 60.4299 44.4 59.8 44.4V46.4C60.9035 46.4 61.8807 46.0254 62.5444 45.1574C63.1693 44.3403 63.4 43.2326 63.4 42H61.4ZM59.8 44.4C59.4967 44.4 59.24 44.2965 58.9828 44.0195C58.6981 43.713 58.4056 43.1795 58.1615 42.3253L56.2385 42.8747C56.5277 43.8871 56.9352 44.7537 57.5172 45.3804C58.1267 46.0368 58.9033 46.4 59.8 46.4V44.4ZM58.163 42.3304L56.763 37.3304L54.837 37.8696L56.237 42.8696L58.163 42.3304ZM56.7615 37.3253C53.82 27.0298 50.718 19.4372 47.4247 14.6345L45.7753 15.7655C48.882 20.2962 51.9134 27.6369 54.8385 37.8747L56.7615 37.3253ZM47.4427 14.6616C44.1857 9.56374 39.3955 6.99999 33.2 6.99999V8.99999C38.7378 8.99999 42.8809 11.2362 45.7573 15.7384L47.4427 14.6616ZM33.2 6.99999C27.2271 6.99999 22.3478 8.95584 18.6672 12.9195L20.1328 14.2804C23.3855 10.7775 27.7062 8.99999 33.2 8.99999V6.99999ZM18.6541 12.934C15.1062 16.9075 13.4 22.4432 13.4 29.4H15.4C15.4 22.7567 17.0271 17.7591 20.1459 14.266L18.6541 12.934ZM13.4 29.4C13.4 35.3667 15.3472 41.0339 19.1877 46.3832L20.8123 45.2168C17.1862 40.1661 15.4 34.8999 15.4 29.4H13.4ZM19.1877 46.3832C23.0019 51.6959 29.621 58.0974 38.9753 65.5809L40.2247 64.0191C30.9123 56.5692 24.4647 50.3041 20.8123 45.2168L19.1877 46.3832ZM38.969 65.5758C48.916 73.666 56.0885 81.4474 60.5412 88.9123L62.2588 87.8877C57.6449 80.1526 50.284 72.2007 40.231 64.0242L38.969 65.5758ZM60.552 88.93C65.1227 96.2431 67.4 104.06 67.4 112.4H69.4C69.4 103.673 67.0107 95.4903 62.248 87.87L60.552 88.93ZM67.4 112.4C67.4 119.713 65.7692 126.065 62.5407 131.489L64.2593 132.511C67.6975 126.735 69.4 120.02 69.4 112.4H67.4ZM62.5407 131.489C59.3015 136.93 54.8347 141.206 49.1212 144.322L50.0789 146.078C56.0987 142.794 60.8319 138.27 64.2593 132.511L62.5407 131.489ZM49.1284 144.318C43.5604 147.296 37.1267 148.8 29.8 148.8V150.8C37.4066 150.8 44.173 149.237 50.0717 146.082L49.1284 144.318ZM79.6734 143.4L79.5021 142.415L79.4752 142.419L79.4486 142.426L79.6734 143.4ZM84.2734 142.6L84.4448 143.585L84.4527 143.584L84.4605 143.582L84.2734 142.6ZM89.6734 140.4L88.9663 139.693L88.9392 139.72L88.9142 139.749L89.6734 140.4ZM89.6734 11.6L88.9142 12.2508L88.9392 12.2799L88.9663 12.3071L89.6734 11.6ZM84.2734 9.4L84.4605 8.41766L84.4527 8.41616L84.4448 8.41478L84.2734 9.4ZM79.6734 8.59999L79.4486 9.57439L79.4752 9.58053L79.5021 9.58521L79.6734 8.59999ZM116.673 8.59999L116.845 9.58521L116.872 9.58053L116.898 9.57439L116.673 8.59999ZM112.073 9.4L111.902 8.41478L111.894 8.41616L111.886 8.41766L112.073 9.4ZM106.473 11.6L105.766 10.8929L105.739 10.92L105.714 10.9492L106.473 11.6ZM106.473 140.4L105.714 141.051L105.739 141.08L105.766 141.107L106.473 140.4ZM112.073 142.6L111.886 143.582L111.894 143.584L111.902 143.585L112.073 142.6ZM116.673 143.4L116.898 142.426L116.872 142.419L116.845 142.415L116.673 143.4ZM80.0734 147C79.1661 147 78.6668 146.828 78.4148 146.644C78.2206 146.501 78.0734 146.281 78.0734 145.8H76.0734C76.0734 146.786 76.4262 147.665 77.2321 148.256C77.9801 148.805 78.9807 149 80.0734 149V147ZM78.0734 145.8C78.0734 145.474 78.1775 145.242 78.4017 145.035C78.6584 144.798 79.1216 144.554 79.8983 144.374L79.4486 142.426C78.492 142.646 77.6551 143.002 77.0452 143.565C76.4027 144.158 76.0734 144.926 76.0734 145.8H78.0734ZM79.8448 144.385L84.4448 143.585L84.1021 141.615L79.5021 142.415L79.8448 144.385ZM84.4605 143.582C85.8985 143.308 87.1182 142.976 88.1007 142.576C89.0712 142.181 89.8859 141.689 90.4327 141.051L88.9142 139.749C88.6609 140.045 88.1757 140.386 87.3461 140.724C86.5287 141.057 85.4484 141.358 84.0863 141.618L84.4605 143.582ZM90.3805 141.107C91.0211 140.467 91.4352 139.576 91.6936 138.543C91.9535 137.503 92.0734 136.248 92.0734 134.8H90.0734C90.0734 136.152 89.9601 137.23 89.7533 138.057C89.545 138.891 89.2591 139.4 88.9663 139.693L90.3805 141.107ZM92.0734 134.8V17.2H90.0734V134.8H92.0734ZM92.0734 17.2C92.0734 15.7517 91.9535 14.4971 91.6936 13.4575C91.4352 12.4239 91.0211 11.5334 90.3805 10.8929L88.9663 12.3071C89.2591 12.5999 89.545 13.1094 89.7533 13.9425C89.9601 14.7696 90.0734 15.8483 90.0734 17.2H92.0734ZM90.4327 10.9492C89.8859 10.3113 89.0712 9.81927 88.1007 9.4239C87.1182 9.02361 85.8985 8.69156 84.4605 8.41766L84.0863 10.3823C85.4484 10.6418 86.5287 10.9431 87.3461 11.2761C88.1757 11.6141 88.6609 11.9553 88.9142 12.2508L90.4327 10.9492ZM84.4448 8.41478L79.8448 7.61478L79.5021 9.58521L84.1021 10.3852L84.4448 8.41478ZM79.8983 7.6256C79.1216 7.44636 78.6584 7.20213 78.4017 6.96519C78.1775 6.75821 78.0734 6.52642 78.0734 6.19999H76.0734C76.0734 7.07356 76.4027 7.84177 77.0452 8.4348C77.6551 8.99785 78.492 9.35363 79.4486 9.57439L79.8983 7.6256ZM78.0734 6.19999C78.0734 5.7192 78.2206 5.49879 78.4148 5.3564C78.6668 5.17159 79.1661 4.99999 80.0734 4.99999V2.99999C78.9807 2.99999 77.9801 3.19506 77.2321 3.74359C76.4262 4.33453 76.0734 5.21412 76.0734 6.19999H78.0734ZM80.0734 4.99999H116.273V2.99999H80.0734V4.99999ZM116.273 4.99999C117.181 4.99999 117.68 5.17159 117.932 5.3564C118.126 5.49879 118.273 5.7192 118.273 6.19999H120.273C120.273 5.21412 119.921 4.33453 119.115 3.74359C118.367 3.19506 117.366 2.99999 116.273 2.99999V4.99999ZM118.273 6.19999C118.273 6.52642 118.169 6.75821 117.945 6.96519C117.688 7.20213 117.225 7.44636 116.449 7.6256L116.898 9.57439C117.855 9.35363 118.692 8.99785 119.302 8.4348C119.944 7.84177 120.273 7.07356 120.273 6.19999H118.273ZM116.502 7.61478L111.902 8.41478L112.245 10.3852L116.845 9.58521L116.502 7.61478ZM111.886 8.41766C109.071 8.95386 106.932 9.72728 105.766 10.8929L107.181 12.3071C107.882 11.606 109.476 10.9128 112.261 10.3823L111.886 8.41766ZM105.714 10.9492C105.162 11.5936 104.813 12.476 104.596 13.4905C104.376 14.5165 104.273 15.759 104.273 17.2H106.273C106.273 15.841 106.371 14.7502 106.551 13.9095C106.734 13.0573 106.985 12.5397 107.233 12.2508L105.714 10.9492ZM104.273 17.2V134.8H106.273V17.2H104.273ZM104.273 134.8C104.273 136.241 104.376 137.484 104.596 138.51C104.813 139.524 105.162 140.406 105.714 141.051L107.233 139.749C106.985 139.46 106.734 138.943 106.551 138.09C106.371 137.25 106.273 136.159 106.273 134.8H104.273ZM105.766 141.107C106.932 142.273 109.071 143.046 111.886 143.582L112.261 141.618C109.476 141.087 107.882 140.394 107.181 139.693L105.766 141.107ZM111.902 143.585L116.502 144.385L116.845 142.415L112.245 141.615L111.902 143.585ZM116.449 144.374C117.225 144.554 117.688 144.798 117.945 145.035C118.169 145.242 118.273 145.474 118.273 145.8H120.273C120.273 144.926 119.944 144.158 119.302 143.565C118.692 143.002 117.855 142.646 116.898 142.426L116.449 144.374ZM118.273 145.8C118.273 146.281 118.126 146.501 117.932 146.644C117.68 146.828 117.181 147 116.273 147V149C117.366 149 118.367 148.805 119.115 148.256C119.921 147.665 120.273 146.786 120.273 145.8H118.273ZM116.273 147H80.0734V149H116.273V147ZM203.478 145L204.387 144.583L204.386 144.581L203.478 145ZM149.278 27.4L148.359 27.7939L148.364 27.8063L148.37 27.8186L149.278 27.4ZM147.678 26.2L147.482 25.2194L147.459 25.2241L147.436 25.2299L147.678 26.2ZM148.678 139.4L147.821 139.914L147.841 139.949L147.864 139.981L148.678 139.4ZM155.678 143L155.52 143.987L155.526 143.988L155.678 143ZM158.278 143.4L158.126 144.388L158.164 144.394L158.201 144.397L158.278 143.4ZM128.878 143.4L128.955 144.397L128.993 144.394L129.03 144.388L128.878 143.4ZM131.478 143L131.63 143.988L131.478 143ZM138.678 139.4L139.492 139.981L139.501 139.968L139.51 139.955L138.678 139.4ZM139.278 11.6L138.519 12.2508L138.544 12.2799L138.571 12.3071L139.278 11.6ZM133.478 9.4L133.307 10.3852L133.478 9.4ZM128.878 8.59999L128.653 9.57439L128.68 9.58053L128.707 9.58521L128.878 8.59999ZM157.678 8.4L156.768 8.8138L156.768 8.81393L157.678 8.4ZM204.878 112.2L203.968 112.614L203.975 112.631L203.984 112.647L204.878 112.2ZM206.278 113.2L206.082 112.219L206.059 112.224L206.036 112.23L206.278 113.2ZM205.078 12.4L204.315 13.0459L204.328 13.0611L204.341 13.0757L205.078 12.4ZM199.478 9.2L199.652 8.21517L199.643 8.2136L199.478 9.2ZM195.878 8.59999L195.653 9.57439L195.683 9.58132L195.714 9.58639L195.878 8.59999ZM225.278 8.59999L225.201 7.60294L225.164 7.60585L225.126 7.61162L225.278 8.59999ZM222.678 8.99999L222.526 8.01162V8.01162L222.678 8.99999ZM215.478 12.4L216.246 13.0402L216.259 13.0252L216.271 13.0097L215.478 12.4ZM212.078 148.4L211.371 147.693L211.344 147.72L211.319 147.749L212.078 148.4ZM208.878 148.8C207.352 148.8 205.806 147.679 204.387 144.583L202.569 145.417C204.083 148.721 206.137 150.8 208.878 150.8V148.8ZM204.386 144.581L150.186 26.9814L148.37 27.8186L202.57 145.419L204.386 144.581ZM150.197 27.0061C149.961 26.4559 149.64 25.9462 149.178 25.6C148.679 25.2255 148.088 25.0982 147.482 25.2194L147.874 27.1806C147.919 27.1716 147.936 27.1761 147.936 27.1762C147.938 27.1765 147.941 27.1773 147.946 27.1798C147.952 27.1824 147.962 27.1882 147.978 27.2C148.05 27.2538 148.195 27.4107 148.359 27.7939L150.197 27.0061ZM147.436 25.2299C146.811 25.386 146.396 25.8236 146.164 26.3439C145.95 26.8271 145.878 27.4037 145.878 28H147.878C147.878 27.5297 147.94 27.2729 147.992 27.1561C148.014 27.1059 148.024 27.1062 148.004 27.1246C147.979 27.147 147.947 27.1636 147.921 27.1701L147.436 25.2299ZM145.878 28V130.8H147.878V28H145.878ZM145.878 130.8C145.878 134.616 146.487 137.692 147.821 139.914L149.536 138.885C148.469 137.108 147.878 134.451 147.878 130.8H145.878ZM147.864 139.981C149.414 142.15 152.047 143.432 155.52 143.987L155.836 142.013C152.643 141.502 150.609 140.383 149.492 138.819L147.864 139.981ZM155.526 143.988L158.126 144.388L158.43 142.412L155.83 142.012L155.526 143.988ZM158.201 144.397C158.946 144.454 159.344 144.645 159.55 144.835C159.73 145.001 159.878 145.273 159.878 145.8H161.878C161.878 144.86 161.593 143.999 160.906 143.365C160.245 142.755 159.343 142.479 158.355 142.403L158.201 144.397ZM159.878 145.8C159.878 146.281 159.731 146.501 159.537 146.644C159.285 146.828 158.785 147 157.878 147V149C158.971 149 159.971 148.805 160.719 148.256C161.525 147.665 161.878 146.786 161.878 145.8H159.878ZM157.878 147H129.278V149H157.878V147ZM129.278 147C128.371 147 127.872 146.828 127.619 146.644C127.425 146.501 127.278 146.281 127.278 145.8H125.278C125.278 146.786 125.631 147.665 126.437 148.256C127.185 148.805 128.185 149 129.278 149V147ZM127.278 145.8C127.278 145.273 127.426 145.001 127.606 144.835C127.812 144.645 128.21 144.454 128.955 144.397L128.801 142.403C127.813 142.479 126.911 142.755 126.25 143.365C125.563 143.999 125.278 144.86 125.278 145.8H127.278ZM129.03 144.388L131.63 143.988L131.326 142.012L128.726 142.412L129.03 144.388ZM131.63 143.988C135.225 143.435 137.936 142.16 139.492 139.981L137.864 138.819C136.754 140.373 134.665 141.498 131.326 142.012L131.63 143.988ZM139.51 139.955C140.998 137.723 141.678 134.63 141.678 130.8H139.678C139.678 134.437 139.025 137.077 137.846 138.845L139.51 139.955ZM141.678 130.8V17.2H139.678V130.8H141.678ZM141.678 17.2C141.678 15.7517 141.558 14.4971 141.298 13.4575C141.04 12.4239 140.626 11.5334 139.985 10.8929L138.571 12.3071C138.864 12.5999 139.15 13.1094 139.358 13.9425C139.565 14.7696 139.678 15.8483 139.678 17.2H141.678ZM140.037 10.9492C139.478 10.2964 138.612 9.80542 137.583 9.415C136.535 9.01759 135.217 8.68747 133.649 8.41478L133.307 10.3852C134.806 10.6459 135.988 10.9491 136.873 11.285C137.777 11.6279 138.278 11.9703 138.519 12.2508L140.037 10.9492ZM133.649 8.41478L129.049 7.61478L128.707 9.58521L133.307 10.3852L133.649 8.41478ZM129.103 7.6256C128.326 7.44636 127.863 7.20213 127.606 6.96519C127.382 6.75821 127.278 6.52642 127.278 6.19999H125.278C125.278 7.07356 125.607 7.84177 126.25 8.4348C126.86 8.99785 127.697 9.35363 128.653 9.57439L129.103 7.6256ZM127.278 6.19999C127.278 5.7192 127.425 5.49879 127.619 5.3564C127.872 5.17159 128.371 4.99999 129.278 4.99999V2.99999C128.185 2.99999 127.185 3.19506 126.437 3.74359C125.631 4.33453 125.278 5.21412 125.278 6.19999H127.278ZM129.278 4.99999H150.678V2.99999H129.278V4.99999ZM150.678 4.99999C152.196 4.99999 153.419 5.33271 154.396 5.94663C155.37 6.55915 156.168 7.49451 156.768 8.8138L158.588 7.98619C157.855 6.37214 156.819 5.1075 155.46 4.25336C154.104 3.40061 152.493 2.99999 150.678 2.99999V4.99999ZM156.768 8.81393L203.968 112.614L205.788 111.786L158.588 7.98606L156.768 8.81393ZM203.984 112.647C204.22 113.119 204.527 113.564 204.947 113.864C205.407 114.192 205.956 114.311 206.521 114.17L206.036 112.23C206.034 112.23 206.055 112.226 206.087 112.232C206.117 112.238 206.125 112.248 206.109 112.236C206.063 112.203 205.937 112.081 205.773 111.753L203.984 112.647ZM206.474 114.181C207.008 114.074 207.501 113.809 207.842 113.331C208.169 112.873 208.278 112.328 208.278 111.8H206.278C206.278 112.072 206.221 112.16 206.214 112.169C206.212 112.172 206.211 112.174 206.201 112.18C206.189 112.187 206.155 112.205 206.082 112.219L206.474 114.181ZM208.278 111.8V21.2H206.278V111.8H208.278ZM208.278 21.2C208.278 16.8921 207.553 13.6197 205.815 11.7243L204.341 13.0757C205.537 14.3803 206.278 16.9746 206.278 21.2H208.278ZM205.842 11.7541C204.222 9.83971 202.145 8.6552 199.652 8.21521L199.304 10.1848C201.344 10.5448 203.001 11.4936 204.315 13.0459L205.842 11.7541ZM199.643 8.2136L196.043 7.6136L195.714 9.58639L199.314 10.1864L199.643 8.2136ZM196.103 7.6256C195.326 7.44636 194.863 7.20213 194.606 6.96519C194.382 6.75821 194.278 6.52642 194.278 6.19999H192.278C192.278 7.07356 192.607 7.84177 193.25 8.4348C193.86 8.99785 194.697 9.35363 195.653 9.57439L196.103 7.6256ZM194.278 6.19999C194.278 5.7192 194.425 5.49879 194.619 5.3564C194.872 5.17159 195.371 4.99999 196.278 4.99999V2.99999C195.185 2.99999 194.185 3.19506 193.437 3.74359C192.631 4.33453 192.278 5.21412 192.278 6.19999H194.278ZM196.278 4.99999H224.878V2.99999H196.278V4.99999ZM224.878 4.99999C225.785 4.99999 226.285 5.17159 226.537 5.3564C226.731 5.49879 226.878 5.7192 226.878 6.19999H228.878C228.878 5.21412 228.525 4.33452 227.719 3.74359C226.972 3.19506 225.971 2.99999 224.878 2.99999V4.99999ZM226.878 6.19999C226.878 6.72707 226.73 6.99882 226.55 7.16519C226.344 7.3551 225.946 7.54565 225.201 7.60294L225.355 9.59705C226.343 9.521 227.245 9.24489 227.906 8.6348C228.593 8.00117 228.878 7.13958 228.878 6.19999H226.878ZM225.126 7.61162L222.526 8.01162L222.83 9.98836L225.43 9.58837L225.126 7.61162ZM222.526 8.01162C218.952 8.56152 216.247 9.75983 214.686 11.7903L216.271 13.0097C217.376 11.5735 219.471 10.5051 222.83 9.98836L222.526 8.01162ZM214.71 11.7598C213.134 13.6511 212.478 16.9046 212.478 21.2H214.478C214.478 16.962 215.156 14.3489 216.246 13.0402L214.71 11.7598ZM212.478 21.2V143.4H214.478V21.2H212.478ZM212.478 143.4C212.478 145.732 212.013 147.051 211.371 147.693L212.785 149.107C214.01 147.882 214.478 145.868 214.478 143.4H212.478ZM211.319 147.749C210.726 148.441 209.947 148.8 208.878 148.8V150.8C210.475 150.8 211.83 150.226 212.837 149.051L211.319 147.749ZM259.942 140.6L259.301 141.367L259.307 141.373L259.942 140.6ZM242.742 114.8L241.8 115.136L241.803 115.143L241.805 115.15L242.742 114.8ZM243.342 36.8L242.417 36.4209L242.414 36.4267L243.342 36.8ZM261.342 11.2L261.969 11.9795L261.97 11.9782L261.342 11.2ZM300.942 3.59999L300.692 4.56826L300.707 4.57207L300.722 4.57543L300.942 3.59999ZM311.942 7.4L312.446 6.53622L312.418 6.51998L312.389 6.50557L311.942 7.4ZM314.342 11.6H313.342V11.6099L313.342 11.6197L314.342 11.6ZM314.942 42H315.942V41.9901L315.942 41.9803L314.942 42ZM309.742 42.8L310.717 42.5751L310.712 42.557L310.708 42.5391L309.742 42.8ZM307.742 35.4L306.777 35.66L306.777 35.6609L307.742 35.4ZM297.942 13.8L297.199 14.469L297.205 14.4757L297.211 14.4823L297.942 13.8ZM261.542 25.2L260.662 24.7247L260.66 24.7283L261.542 25.2ZM256.942 113L255.984 113.286L255.987 113.298L256.942 113ZM269.142 136.2L268.417 136.888L268.426 136.898L269.142 136.2ZM299.542 138.4L298.835 137.693L298.829 137.699L298.822 137.706L299.542 138.4ZM308.942 116.8L307.971 116.562L307.969 116.569L308.942 116.8ZM311.342 107L312.313 107.238L312.319 107.217L312.323 107.196L311.342 107ZM314.542 104.4L314.721 103.416L314.708 103.414L314.694 103.412L314.542 104.4ZM316.742 107.8L317.742 107.825L317.742 107.812V107.8H316.742ZM315.942 140.2L314.943 140.175L314.942 140.188V140.2H315.942ZM313.342 144.4L313.789 145.294L313.803 145.288L313.816 145.28L313.342 144.4ZM301.942 148.2L301.735 147.222L301.717 147.225L301.7 147.23L301.942 148.2ZM285.942 148.8C276.302 148.8 267.861 145.81 260.577 139.827L259.307 141.373C266.957 147.656 275.849 150.8 285.942 150.8V148.8ZM260.584 139.833C253.411 133.834 247.766 125.392 243.679 114.45L241.805 115.15C245.985 126.341 251.806 135.099 259.301 141.367L260.584 139.833ZM243.684 114.464C239.732 103.397 237.742 90.3157 237.742 75.2H235.742C235.742 90.4843 237.753 103.803 241.8 115.136L243.684 114.464ZM237.742 75.2C237.742 60.6311 239.928 47.9629 244.27 37.1733L242.414 36.4267C237.957 47.5038 235.742 60.4356 235.742 75.2H237.742ZM244.268 37.1791C248.752 26.2307 254.663 17.8502 261.969 11.9795L260.716 10.4205C253.088 16.5497 246.999 25.236 242.417 36.4209L244.268 37.1791ZM261.97 11.9782C269.404 5.97888 277.585 3 286.542 3V0.999996C277.099 0.999996 268.48 4.15444 260.714 10.4218L261.97 11.9782ZM286.542 3C291.947 3 296.66 3.52759 300.692 4.56826L301.192 2.63171C296.958 1.53906 292.071 0.999996 286.542 0.999996V3ZM300.722 4.57543C304.791 5.49417 308.379 6.73637 311.495 8.29443L312.389 6.50557C309.105 4.86362 305.36 3.57248 301.162 2.62455L300.722 4.57543ZM311.438 8.26378C312.728 9.01619 313.342 10.0856 313.342 11.6H315.342C315.342 9.38107 314.356 7.65047 312.446 6.53622L311.438 8.26378ZM313.342 11.6197L313.942 42.0197L315.942 41.9803L315.342 11.5803L313.342 11.6197ZM313.942 42C313.942 43.0462 313.752 43.6519 313.525 43.9733C313.343 44.2309 313.075 44.4 312.542 44.4V46.4C313.61 46.4 314.541 46.0024 315.159 45.1267C315.732 44.3147 315.942 43.2205 315.942 42H313.942ZM312.542 44.4C312.02 44.4 311.676 44.2528 311.423 44.0172C311.15 43.7641 310.889 43.3216 310.717 42.5751L308.768 43.0249C308.996 44.0118 309.401 44.8692 310.062 45.4828C310.741 46.1139 311.597 46.4 312.542 46.4V44.4ZM310.708 42.5391L308.708 35.1391L306.777 35.6609L308.777 43.0609L310.708 42.5391ZM308.708 35.14C305.899 24.7071 302.582 17.3052 298.673 13.1177L297.211 14.4823C300.769 18.2948 303.985 25.2929 306.777 35.66L308.708 35.14ZM298.685 13.131C294.909 8.93509 290.312 6.79999 284.942 6.79999V8.79999C289.706 8.79999 293.775 10.6649 297.199 14.469L298.685 13.131ZM284.942 6.79999C275.097 6.79999 267.022 12.9519 260.662 24.7247L262.422 25.6753C268.595 14.2481 276.12 8.79999 284.942 8.79999V6.79999ZM260.66 24.7283C254.413 36.4074 251.342 53.2673 251.342 75.2H253.342C253.342 53.3994 256.404 36.9259 262.424 25.6716L260.66 24.7283ZM251.342 75.2C251.342 90.1952 252.881 102.898 255.984 113.286L257.9 112.714C254.87 102.568 253.342 90.0715 253.342 75.2H251.342ZM255.987 113.298C259.212 123.643 263.339 131.536 268.417 136.888L269.868 135.512C265.079 130.464 261.072 122.89 257.897 112.702L255.987 113.298ZM268.426 136.898C273.622 142.231 279.199 145 285.142 145V143C279.886 143 274.795 140.569 269.858 135.502L268.426 136.898ZM285.142 145C291.367 145 296.444 143.054 300.262 139.094L298.822 137.706C295.441 141.213 290.917 143 285.142 143V145ZM300.249 139.107C304.193 135.163 307.376 127.722 309.915 117.031L307.969 116.569C305.442 127.212 302.358 134.17 298.835 137.693L300.249 139.107ZM309.913 117.038L312.313 107.238L310.371 106.762L307.971 116.562L309.913 117.038ZM312.323 107.196C312.498 106.318 312.79 105.856 313.073 105.626C313.33 105.417 313.72 105.285 314.39 105.388L314.694 103.412C313.631 103.248 312.621 103.416 311.812 104.074C311.028 104.71 310.586 105.682 310.362 106.804L312.323 107.196ZM314.363 105.384C314.856 105.474 315.152 105.684 315.353 105.993C315.576 106.338 315.742 106.906 315.742 107.8H317.742C317.742 106.694 317.542 105.696 317.032 104.907C316.499 104.083 315.695 103.593 314.721 103.416L314.363 105.384ZM315.742 107.775L314.943 140.175L316.942 140.225L317.742 107.825L315.742 107.775ZM314.942 140.2C314.942 140.973 314.765 141.602 314.442 142.124C314.117 142.648 313.611 143.12 312.868 143.52L313.816 145.28C314.807 144.747 315.6 144.052 316.142 143.176C316.686 142.298 316.942 141.294 316.942 140.2H314.942ZM312.895 143.506C309.788 145.059 306.072 146.302 301.735 147.222L302.15 149.178C306.613 148.232 310.497 146.941 313.789 145.294L312.895 143.506ZM301.7 147.23C297.539 148.27 292.294 148.8 285.942 148.8V150.8C292.39 150.8 297.812 150.263 302.185 149.17L301.7 147.23ZM331.236 143.4L331.065 142.415L331.038 142.419L331.011 142.426L331.236 143.4ZM335.836 142.6L336.007 143.585L336.015 143.584L336.023 143.582L335.836 142.6ZM341.236 140.4L340.529 139.693L340.502 139.72L340.477 139.749L341.236 140.4ZM341.236 11.6L340.477 12.2508L340.502 12.2799L340.529 12.3071L341.236 11.6ZM335.836 9.4L336.023 8.41766L336.015 8.41616L336.007 8.41478L335.836 9.4ZM331.236 8.59999L331.011 9.57439L331.038 9.58053L331.065 9.58521L331.236 8.59999ZM403.836 8.59999L404.835 8.55186L404.834 8.53259L404.832 8.51337L403.836 8.59999ZM405.436 41.8L404.437 41.8481L404.439 41.8826L404.443 41.9168L405.436 41.8ZM400.036 42.6L401.024 42.4479L401.023 42.4399L400.036 42.6ZM398.836 35.2L397.849 35.3597L397.849 35.3601L398.836 35.2ZM389.836 15.4L389.151 16.1282L389.156 16.1336L389.162 16.1389L389.836 15.4ZM359.836 11.4L360.427 12.2064L360.436 12.2L359.836 11.4ZM380.436 61L381.414 61.2081L381.417 61.1961L380.436 61ZM382.436 51L381.47 50.7423L381.462 50.7729L381.455 50.8039L382.436 51ZM385.836 48.4L386.015 47.4161L386.001 47.4137L385.988 47.4116L385.836 48.4ZM385.836 100.2L385.988 101.188L386.001 101.186L386.015 101.184L385.836 100.2ZM382.436 97.6L381.456 97.8L381.462 97.829L381.47 97.8577L382.436 97.6ZM380.436 87.8L379.455 87.9961L379.456 88L380.436 87.8ZM376.436 78.6L375.76 79.3372L375.775 79.3506L375.79 79.3634L376.436 78.6ZM360.436 139.8L359.772 140.547L359.782 140.556L359.792 140.565L360.436 139.8ZM391.036 138L391.617 138.814L391.621 138.811L391.036 138ZM401.036 118.8L400.056 118.601L400.055 118.604L401.036 118.8ZM403.436 107L402.462 106.775L402.459 106.788L402.456 106.801L403.436 107ZM408.836 107.8L407.843 107.683L407.839 107.713L407.838 107.744L408.836 107.8ZM406.836 143.4L407.832 143.487L407.833 143.471L407.834 143.456L406.836 143.4ZM331.636 147C330.729 147 330.229 146.828 329.977 146.644C329.783 146.501 329.636 146.281 329.636 145.8H327.636C327.636 146.786 327.989 147.665 328.795 148.256C329.543 148.805 330.543 149 331.636 149V147ZM329.636 145.8C329.636 145.474 329.74 145.242 329.964 145.035C330.221 144.798 330.684 144.554 331.461 144.374L331.011 142.426C330.054 142.646 329.218 143.002 328.608 143.565C327.965 144.158 327.636 144.926 327.636 145.8H329.636ZM331.407 144.385L336.007 143.585L335.665 141.615L331.065 142.415L331.407 144.385ZM336.023 143.582C337.461 143.308 338.681 142.976 339.663 142.576C340.634 142.181 341.448 141.689 341.995 141.051L340.477 139.749C340.223 140.045 339.738 140.386 338.909 140.724C338.091 141.057 337.011 141.358 335.649 141.618L336.023 143.582ZM341.943 141.107C342.584 140.467 342.998 139.576 343.256 138.543C343.516 137.503 343.636 136.248 343.636 134.8H341.636C341.636 136.152 341.523 137.23 341.316 138.057C341.108 138.891 340.822 139.4 340.529 139.693L341.943 141.107ZM343.636 134.8V17.2H341.636V134.8H343.636ZM343.636 17.2C343.636 15.7517 343.516 14.4971 343.256 13.4575C342.998 12.4239 342.584 11.5334 341.943 10.8929L340.529 12.3071C340.822 12.5999 341.108 13.1094 341.316 13.9425C341.523 14.7696 341.636 15.8483 341.636 17.2H343.636ZM341.995 10.9492C341.448 10.3113 340.634 9.81927 339.663 9.4239C338.681 9.02361 337.461 8.69156 336.023 8.41766L335.649 10.3823C337.011 10.6418 338.091 10.9431 338.909 11.2761C339.738 11.6141 340.223 11.9553 340.477 12.2508L341.995 10.9492ZM336.007 8.41478L331.407 7.61478L331.065 9.58521L335.665 10.3852L336.007 8.41478ZM331.461 7.6256C330.684 7.44636 330.221 7.20213 329.964 6.96519C329.74 6.75821 329.636 6.52642 329.636 6.19999H327.636C327.636 7.07356 327.965 7.84177 328.608 8.4348C329.218 8.99785 330.054 9.35363 331.011 9.57439L331.461 7.6256ZM329.636 6.19999C329.636 5.7192 329.783 5.49879 329.977 5.3564C330.229 5.17159 330.729 4.99999 331.636 4.99999V2.99999C330.543 2.99999 329.543 3.19506 328.795 3.74359C327.989 4.33453 327.636 5.21412 327.636 6.19999H329.636ZM331.636 4.99999H398.836V2.99999H331.636V4.99999ZM398.836 4.99999C400.209 4.99999 401.117 5.34156 401.709 5.88593C402.301 6.43081 402.72 7.31155 402.84 8.68662L404.832 8.51337C404.685 6.82177 404.137 5.40251 403.063 4.41406C401.988 3.42509 400.53 2.99999 398.836 2.99999V4.99999ZM402.837 8.64813L404.437 41.8481L406.435 41.7519L404.835 8.55186L402.837 8.64813ZM404.443 41.9168C404.563 42.9404 404.395 43.4764 404.192 43.7425C404.016 43.9726 403.657 44.2 402.836 44.2V46.2C404.015 46.2 405.09 45.8607 405.78 44.9575C406.443 44.0902 406.575 42.9263 406.429 41.6832L404.443 41.9168ZM402.836 44.2C402.221 44.2 401.854 44.0378 401.616 43.8172C401.367 43.586 401.136 43.1748 401.024 42.4479L399.048 42.7521C399.202 43.7585 399.571 44.6474 400.255 45.2828C400.951 45.9288 401.851 46.2 402.836 46.2V44.2ZM401.023 42.4399L399.823 35.0399L397.849 35.3601L399.049 42.7601L401.023 42.4399ZM399.823 35.0403C398.338 25.8568 395.275 19.0059 390.51 14.661L389.162 16.1389C393.464 20.0608 396.401 26.4098 397.849 35.3597L399.823 35.0403ZM390.521 14.6718C385.754 10.185 379.215 7.99999 371.036 7.99999V9.99999C378.857 9.99999 384.851 12.0817 389.151 16.1282L390.521 14.6718ZM371.036 7.99999C365.667 7.99999 361.646 8.79252 359.236 10.6L360.436 12.2C362.293 10.8075 365.738 9.99999 371.036 9.99999V7.99999ZM359.245 10.5936C356.87 12.3353 355.836 15.3972 355.836 19.4H357.836C357.836 15.6695 358.802 13.398 360.427 12.2064L359.245 10.5936ZM355.836 19.4V67.6H357.836V19.4H355.836ZM355.836 67.6C355.836 68.6875 356.108 69.6868 356.829 70.4071C357.549 71.1274 358.548 71.4 359.636 71.4V69.4C358.857 69.4 358.456 69.2059 358.243 68.9929C358.03 68.7799 357.836 68.3792 357.836 67.6H355.836ZM359.636 71.4H369.636V69.4H359.636V71.4ZM369.636 71.4C372.753 71.4 375.371 70.5635 377.392 68.8043C379.404 67.0535 380.718 64.4816 381.414 61.2081L379.458 60.7919C378.821 63.7851 377.668 65.9131 376.079 67.2957C374.501 68.6698 372.386 69.4 369.636 69.4V71.4ZM381.417 61.1961L383.417 51.1961L381.455 50.8039L379.455 60.8039L381.417 61.1961ZM383.402 51.2577C383.637 50.3783 383.966 49.8947 384.293 49.6444C384.596 49.4129 385.02 49.2863 385.684 49.3884L385.988 47.4116C384.918 47.247 383.909 47.4204 383.078 48.0556C382.273 48.6719 381.769 49.6217 381.47 50.7423L383.402 51.2577ZM385.657 49.3839C386.15 49.4735 386.446 49.6839 386.646 49.9932C386.869 50.3378 387.036 50.9055 387.036 51.8H389.036C389.036 50.6945 388.836 49.6956 388.326 48.9067C387.792 48.0828 386.988 47.5931 386.015 47.4161L385.657 49.3839ZM387.036 51.8V96.8H389.036V51.8H387.036ZM387.036 96.8C387.036 97.6945 386.869 98.2622 386.646 98.6068C386.446 98.9161 386.15 99.1265 385.657 99.2161L386.015 101.184C386.988 101.007 387.792 100.517 388.326 99.6933C388.836 98.9044 389.036 97.9055 389.036 96.8H387.036ZM385.684 99.2116C385.02 99.3137 384.596 99.1871 384.293 98.9556C383.966 98.7053 383.637 98.2217 383.402 97.3423L381.47 97.8577C381.769 98.9783 382.273 99.9281 383.078 100.544C383.909 101.18 384.918 101.353 385.988 101.188L385.684 99.2116ZM383.416 97.4L381.416 87.6L379.456 88L381.456 97.8L383.416 97.4ZM381.417 87.6039C380.479 82.9153 379.096 79.5412 377.082 77.8366L375.79 79.3634C377.242 80.5921 378.526 83.3513 379.455 87.9961L381.417 87.6039ZM377.112 77.8628C375.263 76.1684 372.65 75.4 369.436 75.4V77.4C372.356 77.4 374.409 78.0983 375.76 79.3372L377.112 77.8628ZM369.436 75.4H359.636V77.4H369.436V75.4ZM359.636 75.4C358.548 75.4 357.549 75.6725 356.829 76.3929C356.108 77.1132 355.836 78.1125 355.836 79.2H357.836C357.836 78.4208 358.03 78.0201 358.243 77.8071C358.456 77.5941 358.857 77.4 359.636 77.4V75.4ZM355.836 79.2V129.4H357.836V79.2H355.836ZM355.836 129.4C355.836 134.343 357.071 138.147 359.772 140.547L361.1 139.053C359.001 137.187 357.836 134.057 357.836 129.4H355.836ZM359.792 140.565C362.613 142.941 367.463 144 374.036 144V142C367.543 142 363.325 140.926 361.08 139.035L359.792 140.565ZM374.036 144C380.876 144 386.755 142.287 391.617 138.814L390.455 137.186C385.984 140.38 380.529 142 374.036 142V144ZM391.621 138.811C396.719 135.129 400.129 128.434 402.017 118.996L400.055 118.604C398.21 127.833 394.953 133.938 390.45 137.189L391.621 138.811ZM402.016 118.999L404.416 107.199L402.456 106.801L400.056 118.601L402.016 118.999ZM404.41 107.225C404.579 106.494 404.848 106.06 405.141 105.806C405.423 105.561 405.824 105.4 406.436 105.4V103.4C405.448 103.4 404.549 103.672 403.831 104.294C403.124 104.907 402.693 105.772 402.462 106.775L404.41 107.225ZM406.436 105.4C407.167 105.4 407.467 105.612 407.619 105.827C407.809 106.096 407.965 106.647 407.843 107.683L409.829 107.917C409.974 106.687 409.862 105.537 409.253 104.673C408.604 103.755 407.571 103.4 406.436 103.4V105.4ZM407.838 107.744L405.838 143.344L407.834 143.456L409.834 107.856L407.838 107.744ZM405.84 143.313C405.72 144.688 405.301 145.569 404.709 146.114C404.117 146.658 403.209 147 401.836 147V149C403.53 149 404.988 148.575 406.063 147.586C407.137 146.597 407.685 145.178 407.832 143.487L405.84 143.313ZM401.836 147H331.636V149H401.836V147ZM453.045 143.4L453.122 144.397L453.135 144.396L453.147 144.395L453.045 143.4ZM460.845 142.6L460.75 141.604L460.743 141.605L460.845 142.6ZM466.445 140.6L465.738 139.893L465.715 139.916L465.693 139.941L466.445 140.6ZM466.045 11.6L465.491 12.432L465.542 12.4666L465.598 12.4944L466.045 11.6ZM461.245 10.8L461.356 11.7939L461.367 11.7927L461.377 11.7912L461.245 10.8ZM454.045 11.6L454.101 12.5985L454.128 12.5969L454.156 12.5939L454.045 11.6ZM453.645 6.19999L453.478 5.2141L453.469 5.21554L453.461 5.21712L453.645 6.19999ZM469.245 2.8L469.55 3.75242L469.567 3.74696L469.584 3.74089L469.245 2.8ZM482.245 140.6L481.493 141.258L481.515 141.284L481.538 141.307L482.245 140.6ZM488.045 142.6L488.166 141.607L488.153 141.606L488.14 141.605L488.045 142.6ZM494.645 143.4L494.525 144.393L494.547 144.395L494.569 144.397L494.645 143.4ZM453.445 147C452.538 147 452.039 146.828 451.787 146.644C451.592 146.501 451.445 146.281 451.445 145.8H449.445C449.445 146.786 449.798 147.665 450.604 148.256C451.352 148.805 452.353 149 453.445 149V147ZM451.445 145.8C451.445 145.273 451.593 145.001 451.774 144.835C451.979 144.645 452.377 144.454 453.122 144.397L452.969 142.403C451.98 142.479 451.078 142.755 450.417 143.365C449.731 143.999 449.445 144.86 449.445 145.8H451.445ZM453.147 144.395L460.947 143.595L460.743 141.605L452.943 142.405L453.147 144.395ZM460.94 143.595C463.778 143.325 465.994 142.635 467.198 141.258L465.693 139.941C465.03 140.699 463.513 141.341 460.751 141.605L460.94 143.595ZM467.152 141.307C468.514 139.946 469.045 137.661 469.045 134.8H467.045C467.045 137.539 466.51 139.121 465.738 139.893L467.152 141.307ZM469.045 134.8V16H467.045V134.8H469.045ZM469.045 16C469.045 13.5734 468.324 11.6212 466.493 10.7056L465.598 12.4944C466.433 12.9121 467.045 13.8932 467.045 16H469.045ZM466.6 10.7679C465.13 9.78793 463.258 9.52276 461.113 9.80876L461.377 11.7912C463.232 11.5439 464.561 11.8121 465.491 12.432L466.6 10.7679ZM461.135 9.80611L453.935 10.6061L454.156 12.5939L461.356 11.7939L461.135 9.80611ZM453.99 10.6015C452.886 10.6628 452.26 10.4772 451.931 10.2393C451.659 10.0427 451.445 9.70556 451.445 8.99999H449.445C449.445 10.1611 449.832 11.1906 450.76 11.8607C451.63 12.4895 452.805 12.6705 454.101 12.5985L453.99 10.6015ZM451.445 8.99999C451.445 8.54356 451.596 8.22193 451.904 7.95257C452.249 7.65036 452.853 7.36601 453.83 7.18286L453.461 5.21712C452.305 5.43397 451.308 5.81629 450.587 6.44741C449.828 7.11139 449.445 7.98975 449.445 8.99999H451.445ZM453.813 7.18587C460.888 5.98436 466.146 4.84168 469.55 3.75242L468.941 1.84757C465.678 2.89164 460.536 4.01561 453.478 5.2141L453.813 7.18587ZM469.584 3.74089C472.908 2.54415 475.233 2 476.645 2V-3.8147e-06C474.858 -3.8147e-06 472.249 0.655846 468.907 1.85911L469.584 3.74089ZM476.645 2C477.879 2 478.624 2.32075 479.072 2.79047C479.529 3.26889 479.845 4.07615 479.845 5.39999H481.845C481.845 3.7905 481.462 2.39777 480.519 1.40952C479.567 0.412579 478.212 -3.8147e-06 476.645 -3.8147e-06V2ZM479.845 5.39999V134.8H481.845V5.39999H479.845ZM479.845 134.8C479.845 137.64 480.304 139.9 481.493 141.258L482.998 139.941C482.32 139.167 481.845 137.56 481.845 134.8H479.845ZM481.538 141.307C482.861 142.63 485.094 143.323 487.951 143.595L488.14 141.605C485.396 141.343 483.763 140.703 482.952 139.893L481.538 141.307ZM487.925 143.593L494.525 144.393L494.766 142.407L488.166 141.607L487.925 143.593ZM494.569 144.397C495.313 144.454 495.711 144.645 495.917 144.835C496.097 145.001 496.245 145.273 496.245 145.8H498.245C498.245 144.86 497.96 143.999 497.274 143.365C496.613 142.755 495.711 142.479 494.722 142.403L494.569 144.397ZM496.245 145.8C496.245 146.281 496.098 146.501 495.904 146.644C495.652 146.828 495.153 147 494.245 147V149C495.338 149 496.339 148.805 497.087 148.256C497.893 147.665 498.245 146.786 498.245 145.8H496.245ZM494.245 147H453.445V149H494.245V147ZM517.25 149.6L517.446 150.581L517.482 150.574L517.516 150.564L517.25 149.6ZM514.25 149.2L513.543 149.907L513.582 149.946L513.625 149.981L514.25 149.2ZM515.65 144.4L515.298 143.464L515.266 143.476L515.236 143.49L515.65 144.4ZM541.05 125L541.856 125.592L541.86 125.587L541.05 125ZM554.85 87.6L553.88 87.3575L553.87 87.3989L553.863 87.441L554.85 87.6ZM554.45 85.6L554.897 84.7056L554.45 85.6ZM552.45 86.2L553.062 86.9907L553.076 86.9797L553.09 86.9682L552.45 86.2ZM520.45 85.2L519.833 85.9871L520.45 85.2ZM508.65 69.6L507.728 69.9872L507.733 69.9985L507.738 70.0096L508.65 69.6ZM509.05 25.2L509.962 25.6111L509.965 25.6045L509.05 25.2ZM521.25 8.4L520.616 7.62686L520.606 7.63509L521.25 8.4ZM556.25 8.79999L556.917 8.05475V8.05475L556.25 8.79999ZM568.05 27.8L567.104 28.1255L567.108 28.1349L567.111 28.1442L568.05 27.8ZM564.85 100.6L563.916 100.242L563.914 100.247L564.85 100.6ZM544.85 132.8L544.143 132.093L544.137 132.099L544.85 132.8ZM553.05 17.2L552.152 17.6399L552.157 17.651L552.163 17.6619L553.05 17.2ZM517.054 148.619C515.84 148.862 515.203 148.682 514.875 148.419L513.625 149.981C514.63 150.785 515.993 150.871 517.446 150.581L517.054 148.619ZM514.957 148.493C514.624 148.159 514.45 147.753 514.45 147.2H512.45C512.45 148.247 512.81 149.174 513.543 149.907L514.957 148.493ZM514.45 147.2C514.45 146.53 514.809 145.881 516.064 145.31L515.236 143.49C513.558 144.253 512.45 145.47 512.45 147.2H514.45ZM516.002 145.336C526.455 141.399 535.077 134.811 541.856 125.592L540.244 124.408C533.689 133.323 525.378 139.668 515.298 143.464L516.002 145.336ZM541.86 125.587C548.648 116.219 553.289 103.588 555.837 87.759L553.863 87.441C551.345 103.078 546.786 115.38 540.24 124.413L541.86 125.587ZM555.82 87.8425C555.97 87.244 556.039 86.645 555.931 86.1039C555.813 85.5161 555.481 84.9975 554.897 84.7056L554.003 86.4944C553.996 86.4911 553.977 86.4776 553.961 86.4562C553.949 86.4384 553.959 86.4428 553.969 86.4961C553.995 86.6217 553.997 86.8893 553.88 87.3575L555.82 87.8425ZM554.897 84.7056C553.793 84.1534 552.672 84.7133 551.81 85.4318L553.09 86.9682C553.433 86.6824 553.681 86.5548 553.837 86.5078C553.97 86.4679 554.002 86.4939 554.003 86.4944L554.897 84.7056ZM551.838 85.4093C547.905 88.454 543.063 90 537.25 90V92C543.437 92 548.728 90.346 553.062 86.9907L551.838 85.4093ZM537.25 90C531.207 90 525.824 88.1417 521.067 84.4129L519.833 85.9871C524.942 89.9917 530.76 92 537.25 92V90ZM521.067 84.4129C516.278 80.6597 512.439 75.5971 509.562 69.1904L507.738 70.0096C510.728 76.6696 514.755 82.0069 519.833 85.9871L521.067 84.4129ZM509.572 69.2128C506.829 62.6811 505.45 55.4812 505.45 47.6H503.45C503.45 55.7188 504.871 63.1855 507.728 69.9872L509.572 69.2128ZM505.45 47.6C505.45 39.5955 506.958 32.2706 509.962 25.6111L508.138 24.7889C505.008 31.7294 503.45 39.3379 503.45 47.6H505.45ZM509.965 25.6045C512.979 18.7902 516.96 13.3203 521.894 9.16491L520.606 7.63509C515.407 12.013 511.255 17.7432 508.135 24.7955L509.965 25.6045ZM521.884 9.17307C526.92 5.04156 532.432 3 538.45 3V0.999996C531.934 0.999996 525.98 3.2251 520.616 7.62692L521.884 9.17307ZM538.45 3C545.004 3 550.7 5.17599 555.583 9.54523L556.917 8.05475C551.667 3.35733 545.496 0.999996 538.45 0.999996V3ZM555.583 9.54523C560.493 13.9384 564.346 20.1116 567.104 28.1255L568.996 27.4745C566.154 19.2217 562.14 12.7283 556.917 8.05475L555.583 9.54523ZM567.111 28.1442C569.995 36.0089 571.45 45.2874 571.45 56H573.45C573.45 45.1126 571.972 35.5911 568.989 27.4557L567.111 28.1442ZM571.45 56C571.45 72.4312 568.932 87.1736 563.916 100.242L565.784 100.958C570.901 87.6264 573.45 72.6355 573.45 56H571.45ZM563.914 100.247C559.023 113.204 552.426 123.809 544.143 132.093L545.557 133.507C554.074 124.991 560.811 114.13 565.786 100.953L563.914 100.247ZM544.137 132.099C535.979 140.389 526.928 145.888 516.984 148.636L517.516 150.564C527.839 147.712 537.188 142.011 545.563 133.501L544.137 132.099ZM517.85 46.6C517.85 59.7803 519.401 69.8086 522.596 76.5769C524.199 79.9742 526.236 82.5893 528.736 84.3544C531.245 86.1259 534.163 87 537.45 87V85C534.537 85 532.03 84.2324 529.889 82.7206C527.739 81.2023 525.901 78.8925 524.404 75.7231C521.399 69.3581 519.85 59.6864 519.85 46.6H517.85ZM537.45 87C541.033 87 544.218 86.0657 546.967 84.1737C549.707 82.2874 551.958 79.488 553.748 75.8404L551.952 74.9596C550.275 78.3787 548.226 80.8793 545.833 82.5263C543.448 84.1676 540.667 85 537.45 85V87ZM553.748 75.8404C557.312 68.5758 559.05 58.3995 559.05 45.4H557.05C557.05 58.2672 555.322 68.0908 551.952 74.9596L553.748 75.8404ZM559.05 45.4C559.05 32.9395 557.38 23.3489 553.937 16.7381L552.163 17.6619C555.387 23.8511 557.05 33.0605 557.05 45.4H559.05ZM553.948 16.7601C552.288 13.3702 550.148 10.768 547.502 9.01622C544.852 7.2611 541.754 6.4 538.25 6.4V8.4C541.413 8.4 544.115 9.17223 546.398 10.6838C548.686 12.1987 550.612 14.4965 552.152 17.6399L553.948 16.7601ZM538.25 6.4C534.84 6.4 531.811 7.26441 529.204 9.02059C526.603 10.7722 524.479 13.372 522.804 16.7564C519.468 23.4974 517.85 33.483 517.85 46.6H519.85C519.85 33.5836 521.466 23.9692 524.596 17.6435C526.155 14.4947 528.072 12.1945 530.321 10.6794C532.564 9.16892 535.194 8.4 538.25 8.4V6.4ZM597.719 149.6L597.915 150.581L597.95 150.574L597.985 150.564L597.719 149.6ZM594.719 149.2L594.012 149.907L594.051 149.946L594.094 149.981L594.719 149.2ZM596.119 144.4L595.766 143.464L595.735 143.476L595.705 143.49L596.119 144.4ZM621.519 125L622.324 125.592L622.328 125.587L621.519 125ZM635.319 87.6L634.349 87.3575L634.338 87.3989L634.331 87.441L635.319 87.6ZM634.919 85.6L635.366 84.7056L634.919 85.6ZM632.919 86.2L633.531 86.9907L633.545 86.9797L633.559 86.9682L632.919 86.2ZM600.919 85.2L600.302 85.9871L600.919 85.2ZM589.119 69.6L588.197 69.9872L588.201 69.9985L588.206 70.0096L589.119 69.6ZM589.519 25.2L590.43 25.6111L590.433 25.6045L589.519 25.2ZM601.719 8.4L601.084 7.62686L601.075 7.63509L601.719 8.4ZM636.719 8.79999L637.386 8.05475V8.05475L636.719 8.79999ZM648.519 27.8L647.573 28.1255L647.576 28.1349L647.58 28.1442L648.519 27.8ZM645.319 100.6L644.385 100.242L644.383 100.247L645.319 100.6ZM625.319 132.8L624.612 132.093L624.606 132.099L625.319 132.8ZM633.519 17.2L632.621 17.6399L632.626 17.651L632.632 17.6619L633.519 17.2ZM597.523 148.619C596.309 148.862 595.672 148.682 595.343 148.419L594.094 149.981C595.099 150.785 596.462 150.871 597.915 150.581L597.523 148.619ZM595.426 148.493C595.092 148.159 594.919 147.753 594.919 147.2H592.919C592.919 148.247 593.279 149.174 594.012 149.907L595.426 148.493ZM594.919 147.2C594.919 146.53 595.278 145.881 596.533 145.31L595.705 143.49C594.026 144.253 592.919 145.47 592.919 147.2H594.919ZM596.471 145.336C606.924 141.399 615.546 134.811 622.324 125.592L620.713 124.408C614.158 133.323 605.847 139.668 595.766 143.464L596.471 145.336ZM622.328 125.587C629.116 116.219 633.757 103.588 636.306 87.759L634.331 87.441C631.814 103.078 627.254 115.38 620.709 124.413L622.328 125.587ZM636.289 87.8425C636.439 87.244 636.508 86.645 636.399 86.1039C636.282 85.5161 635.95 84.9975 635.366 84.7056L634.472 86.4944C634.465 86.4911 634.445 86.4776 634.43 86.4562C634.417 86.4384 634.427 86.4428 634.438 86.4961C634.463 86.6217 634.466 86.8893 634.349 87.3575L636.289 87.8425ZM635.366 84.7056C634.262 84.1534 633.141 84.7133 632.279 85.4318L633.559 86.9682C633.902 86.6824 634.15 86.5548 634.306 86.5078C634.439 86.4679 634.47 86.4939 634.472 86.4944L635.366 84.7056ZM632.307 85.4093C628.374 88.454 623.531 90 617.719 90V92C623.906 92 629.197 90.346 633.531 86.9907L632.307 85.4093ZM617.719 90C611.676 90 606.293 88.1417 601.536 84.4129L600.302 85.9871C605.411 89.9917 611.228 92 617.719 92V90ZM601.536 84.4129C596.747 80.6597 592.907 75.5971 590.031 69.1904L588.206 70.0096C591.197 76.6696 595.224 82.0069 600.302 85.9871L601.536 84.4129ZM590.041 69.2128C587.297 62.6811 585.919 55.4812 585.919 47.6H583.919C583.919 55.7188 585.34 63.1855 588.197 69.9872L590.041 69.2128ZM585.919 47.6C585.919 39.5955 587.427 32.2706 590.43 25.6111L588.607 24.7889C585.477 31.7294 583.919 39.3379 583.919 47.6H585.919ZM590.433 25.6045C593.447 18.7902 597.428 13.3203 602.363 9.16491L601.075 7.63509C595.876 12.013 591.724 17.7432 588.604 24.7955L590.433 25.6045ZM602.353 9.17307C607.388 5.04156 612.901 3 618.919 3V0.999996C612.403 0.999996 606.449 3.2251 601.084 7.62692L602.353 9.17307ZM618.919 3C625.473 3 631.169 5.17599 636.052 9.54523L637.386 8.05475C632.135 3.35733 625.965 0.999996 618.919 0.999996V3ZM636.052 9.54523C640.962 13.9384 644.814 20.1116 647.573 28.1255L649.464 27.4745C646.623 19.2217 642.609 12.7283 637.386 8.05475L636.052 9.54523ZM647.58 28.1442C650.464 36.0089 651.919 45.2874 651.919 56H653.919C653.919 45.1126 652.441 35.5911 649.458 27.4557L647.58 28.1442ZM651.919 56C651.919 72.4312 649.401 87.1736 644.385 100.242L646.252 100.958C651.37 87.6264 653.919 72.6355 653.919 56H651.919ZM644.383 100.247C639.491 113.204 632.895 123.809 624.612 132.093L626.026 133.507C634.542 124.991 641.28 114.13 646.254 100.953L644.383 100.247ZM624.606 132.099C616.447 140.389 607.397 145.888 597.452 148.636L597.985 150.564C608.307 147.712 617.657 142.011 626.031 133.501L624.606 132.099ZM598.319 46.6C598.319 59.7803 599.869 69.8086 603.064 76.5769C604.668 79.9742 606.705 82.5893 609.204 84.3544C611.713 86.1259 614.632 87 617.919 87V85C615.006 85 612.499 84.2324 610.358 82.7206C608.208 81.2023 606.369 78.8925 604.873 75.7231C601.868 69.3581 600.319 59.6864 600.319 46.6H598.319ZM617.919 87C621.502 87 624.687 86.0657 627.436 84.1737C630.176 82.2874 632.427 79.488 634.217 75.8404L632.421 74.9596C630.744 78.3787 628.695 80.8793 626.302 82.5263C623.917 84.1676 621.136 85 617.919 85V87ZM634.217 75.8404C637.78 68.5758 639.519 58.3995 639.519 45.4H637.519C637.519 58.2672 635.791 68.0908 632.421 74.9596L634.217 75.8404ZM639.519 45.4C639.519 32.9395 637.849 23.3489 634.406 16.7381L632.632 17.6619C635.855 23.8511 637.519 33.0605 637.519 45.4H639.519ZM634.417 16.7601C632.756 13.3702 630.616 10.768 627.971 9.01622C625.32 7.2611 622.223 6.4 618.719 6.4V8.4C621.881 8.4 624.584 9.17223 626.867 10.6838C629.154 12.1987 631.081 14.4965 632.621 17.6399L634.417 16.7601ZM618.719 6.4C615.308 6.4 612.28 7.26441 609.673 9.02059C607.072 10.7722 604.947 13.372 603.273 16.7564C599.936 23.4974 598.319 33.483 598.319 46.6H600.319C600.319 33.5836 601.934 23.9692 605.065 17.6435C606.623 14.4947 608.541 12.1945 610.79 10.6794C613.032 9.16892 615.663 8.4 618.719 8.4V6.4ZM674.662 145L673.72 144.666L673.717 144.675L673.714 144.684L674.662 145ZM719.263 19.2L720.205 19.5341L720.211 19.5163L720.217 19.4983L719.263 19.2ZM667.862 17.2L667.263 16.4L667.862 17.2ZM665.263 19.8L666.031 20.4402L666.055 20.4116L666.076 20.3812L665.263 19.8ZM660.662 19.8L659.673 19.9414L659.685 20.0307L659.714 20.1162L660.662 19.8ZM660.862 16.8L659.902 16.5228L659.897 16.5401L659.892 16.5575L660.862 16.8ZM663.862 6.4L664.823 6.67716L664.828 6.65993L664.833 6.64253L663.862 6.4ZM727.463 13L728.414 13.3068L728.415 13.3048L727.463 13ZM684.662 145.8L683.711 145.493L683.704 145.515L683.698 145.537L684.662 145.8ZM676.862 147C675.889 147 675.595 146.763 675.519 146.659C675.447 146.56 675.309 146.222 675.611 145.316L673.714 144.684C673.349 145.778 673.245 146.94 673.906 147.841C674.563 148.737 675.702 149 676.862 149V147ZM675.605 145.334L720.205 19.5341L718.32 18.8658L673.72 144.666L675.605 145.334ZM720.217 19.4983C720.578 18.3446 720.671 17.1559 720.037 16.2335C719.388 15.2896 718.243 15 717.062 15V17C718.016 17 718.304 17.2437 718.388 17.3665C718.488 17.5107 718.614 17.9221 718.308 18.9017L720.217 19.4983ZM717.062 15H672.662V17H717.062V15ZM672.662 15C670.433 15 668.579 15.4129 667.263 16.4L668.463 18C669.28 17.387 670.625 17 672.662 17V15ZM667.263 16.4C666.127 17.2518 665.184 18.1897 664.449 19.2188L666.076 20.3812C666.674 19.5436 667.465 18.7482 668.463 18L667.263 16.4ZM664.494 19.1598C664.023 19.7255 663.441 20 662.662 20V22C664.018 22 665.169 21.4745 666.031 20.4402L664.494 19.1598ZM662.662 20C662.246 20 662.007 19.9208 661.877 19.8425C661.766 19.7761 661.676 19.678 661.611 19.4838L659.714 20.1162C659.916 20.722 660.292 21.2239 660.848 21.5575C661.384 21.8792 662.013 22 662.662 22V20ZM661.652 19.6586C661.54 18.8727 661.592 18.0043 661.833 17.0425L659.892 16.5575C659.599 17.7291 659.518 18.8606 659.673 19.9414L661.652 19.6586ZM661.823 17.0772L664.823 6.67716L662.902 6.12284L659.902 16.5228L661.823 17.0772ZM664.833 6.64253C664.995 5.99339 665.252 5.60912 665.537 5.38086C665.819 5.15512 666.232 4.99999 666.862 4.99999V2.99999C665.893 2.99999 665.006 3.24487 664.288 3.81913C663.573 4.39087 663.13 5.20661 662.892 6.15746L664.833 6.64253ZM666.862 4.99999H726.263V2.99999H666.862V4.99999ZM726.263 4.99999C727.076 4.99999 727.5 5.17764 727.712 5.35925C727.894 5.51558 728.062 5.79786 728.062 6.4H730.062C730.062 5.40214 729.764 4.48442 729.013 3.84074C728.292 3.22235 727.315 2.99999 726.263 2.99999V4.99999ZM728.062 6.4C728.062 6.80669 727.955 7.52548 727.691 8.6144C727.432 9.68219 727.04 11.0405 726.51 12.6952L728.415 13.3048C728.952 11.6261 729.36 10.2178 729.634 9.08559C729.904 7.97451 730.062 7.05997 730.062 6.4H728.062ZM726.511 12.6932L683.711 145.493L685.614 146.107L728.414 13.3067L726.511 12.6932ZM683.698 145.537C683.538 146.122 683.3 146.463 683.045 146.664C682.792 146.862 682.426 147 681.862 147V149C682.766 149 683.599 148.771 684.28 148.236C684.958 147.704 685.387 146.945 685.627 146.063L683.698 145.537ZM681.862 147H676.862V149H681.862V147Z" fill="black" mask="url(#path-1-outside-1_179_7)"/>
</svg>
